<svg xmlns="http://www.w3.org/2000/svg" viewBox="0 0 372.79 85.53"><defs><style>.cls-1{fill:#03010c;}.cls-2{fill:#04020d;}.cls-3{fill:#9e4833;}.cls-4{fill:#9f4a35;}.cls-5{fill:#05030e;}.cls-6{fill:#b67464;}.cls-7{fill:#c18b7d;}.cls-8{fill:#b16b5a;}</style></defs><g id="图层_2" data-name="图层 2"><g id="图层_1-2" data-name="图层 1"><path class="cls-1" d="M221.42,39.1c4.42-3.68,8.92-4,13.59-3.24a7.14,7.14,0,0,1,6.25,6.21c.91,4.65.4,9.34.5,14,.07,3.06,0,6.12.05,9.18,0,1.44-.47,1.89-1.87,1.85-2.43-.09-4.87-.12-7.3,0-1.73.09-2.11-.6-2.08-2.2.08-5.49.06-11,0-16.48,0-3.54-1.12-4.53-4.53-4.47s-4.56,1.31-4.56,4.57c0,5.4-.06,10.81,0,16.21,0,1.65-.24,2.55-2.18,2.36-2.68-.25-6.12,1.09-7.86-.49s-.54-5.09-.58-7.74c-.09-6.85,0-13.69-.06-20.54,0-1.64.4-2.27,2.1-2.16a45.44,45.44,0,0,0,6,0C220.66,36.07,221.9,36.36,221.42,39.1Z"/><path class="cls-1" d="M277.74,61.45c0,5.12,0,5.19-5.12,6a33,33,0,0,1-13.69-.85c-5.38-1.5-8.61-5.27-9.81-10.55-1.38-6.13-1.62-12.34.35-18.44,1.86-5.79,6-9.09,11.82-10.28a36.3,36.3,0,0,1,14,.21c1.44.26,2.24.81,2.11,2.48a46.8,46.8,0,0,0,0,5.68c.07,1.45-.29,1.89-1.84,1.47a26.16,26.16,0,0,0-8.32-.82c-3.41.19-5.38,1.69-6.25,5a23,23,0,0,0,0,11.51c.8,3.33,2.9,5,6.38,5.19a21.93,21.93,0,0,0,7.79-.69c2.17-.67,3-.28,2.63,2A15.7,15.7,0,0,0,277.74,61.45Z"/><path class="cls-2" d="M144.71,40.62c1.3-2.71,3.11-4.51,6.12-4.93,1.59-.22,2.44,0,2.18,1.82a29.32,29.32,0,0,0-.06,3c0,1.43.33,3.1-.28,4.23s-2.45.55-3.73.89a5.92,5.92,0,0,0-4.78,6c0,4.41-.11,8.82,0,13.23.06,1.84-.57,2.35-2.3,2.25-2.16-.12-4.33-.08-6.49,0-1.35,0-1.94-.33-1.93-1.81q.08-13.64,0-27.28c0-1.45.5-1.89,1.88-1.83a45.43,45.43,0,0,0,6,0c2.15-.18,3.24.4,2.85,2.75A1.57,1.57,0,0,0,144.71,40.62Z"/><path class="cls-1" d="M330.36,40.4c2-2.48,3.87-4.51,7.14-4.77,1.35-.1,2.11,0,1.9,1.61-.11.8,0,1.62-.07,2.43-.07,1.62.29,3.43-.33,4.81s-2.75.72-4.15,1.19c-2.92,1-4.41,3-4.46,6.63-.06,4-.12,7.94,0,11.9.09,2.15-.4,3.21-2.77,2.92-2.57-.31-5.91,1.1-7.53-.62-1.46-1.57-.39-4.82-.4-7.33-.05-7,0-13.89-.05-20.83,0-1.66.44-2.26,2.12-2.15a37.06,37.06,0,0,0,6,0c2.17-.2,3,.58,2.61,2.71A9.5,9.5,0,0,0,330.36,40.4Z"/><path class="cls-2" d="M203.92,51.58c0,4.5-.06,9,0,13.5,0,1.48-.36,2.15-1.95,2-2.77-.2-6.28,1.1-8.12-.51s-.53-5.08-.56-7.74c-.09-6.84,0-13.68-.06-20.52,0-1.63.44-2.25,2.13-2.16,2.24.12,4.5.09,6.75,0,1.45-.06,1.84.51,1.81,1.89C203.87,42.58,203.92,47.08,203.92,51.58Z"/><path class="cls-3" d="M29.91,72.78c-3.32-1.46-7.84-1.11-12.08-2.23-3.39-.89-5.21-3.37-5.87-6.78-.28-1.46.23-1.86,1.51-1.23,3,1.45,5.86.83,8.69-.33a11.25,11.25,0,0,1,7.75-.43c3.2,1,6.37,2.08,9.77,2.16,1.66,0,1.19,1.13,1,2.06C39.88,69,34.22,72.91,29.91,72.78Z"/><path class="cls-4" d="M33,85.49c-2,.1-2.36-.58-2-2.69a15.87,15.87,0,0,1,8.2-11.57,7.49,7.49,0,0,0,4-5.88c.15-1.52,1-1.77,2.17-1.37a22.5,22.5,0,0,1,2.85,1.36c1,.53,1.11,1.25.36,2.1a7.39,7.39,0,0,1-1.08,1.15c-5.2,3.79-8.5,9-11.36,14.64C35.51,84.51,34.81,85.76,33,85.49Z"/><path class="cls-4" d="M83,12.64a5.27,5.27,0,0,0-5.24,0,2.73,2.73,0,0,1-4.12-1.38C71.9,7.47,69.22,5.09,64.8,5.31A2.11,2.11,0,0,1,63.55,5c-2.4-1.81-5-1.41-7.59-.68-1.38.39-2.73.62-2.87-1.43C53,1.14,53.43.08,55.55,0a28.62,28.62,0,0,1,10,1.81,55.42,55.42,0,0,1,17.27,9.74A.69.69,0,0,1,83,12.64Z"/><path class="cls-5" d="M198.49,21.9c2.08,0,4.41-.47,5.26,1.64a10.3,10.3,0,0,1-.05,7.64,2.28,2.28,0,0,1-1.93,1.34,21.71,21.71,0,0,1-2.42.18c-6,.12-8-2.34-6.43-8.19C193.75,21.35,196.42,22,198.49,21.9Z"/><path class="cls-6" d="M5.08,26.71l.54,1.07c-.57,1.9-1.44,3.71-1.6,5.73,0,.59,0,1.67-1,1.35a1.25,1.25,0,0,1-.72-1.74C3.21,31,3.59,28.6,5.08,26.71Z"/><path class="cls-7" d="M83,12.64l-.08-1.08c1.34.64,1.92,1.93,3.28,3.58A5.27,5.27,0,0,1,83,12.64Z"/><path class="cls-8" d="M89.2,28.88c1.73,1.42,1.21,3.51,1.61,5.32C89.48,32.67,89.84,30.63,89.2,28.88Z"/><path class="cls-8" d="M90.83,34.24c1.12-1.28.29-2.81.55-4.21.9,1.26.71,2.67.47,4C91.75,34.65,91.31,35,90.83,34.24Z"/><path class="cls-3" d="M71,47c-1.6-.92-3.24-1.78-4.86-2.68a5.71,5.71,0,0,0-4.57-.7c-4.27,1.29-7.92-.14-10.94-3-2.85-2.67-5.88-2.86-9.27-1.69-6.93,2.38-9.83.59-10.85-6.71a9.12,9.12,0,0,0-.13-1c-.54-2.17.46-4.62-1.21-6.6-.31-.36,0-.85.34-1.15a1.14,1.14,0,0,1,1.24-.06c1.26.5,1.56,1.59,1.67,2.77.17,1.84.19,3.7.47,5.52,1,6.52,2.2,7.2,8.35,4.95a1.58,1.58,0,0,0,.42-.31c1.82-1.8,3.8-3.52,4.38-6.14.2-.95-.08-2.08,1.32-2s2.33.58,2,2.3c-.27,1.51.45,2.92.77,4.37.24,1.08.92,1.41,2,.91,1.57-.74,3.23-4.68,2.16-5.91-2-2.33-2.53-6.08-6.25-6.85-4-1.18-4-1.18-3.63-5.24a2.41,2.41,0,0,0-1-2.52c-3.07-2-5.76-5.13-10.15-2.87a3.13,3.13,0,0,1-4-1.09c-1-1.45-.16-2.7.87-3.75,1.63-1.63.73-2.38-.94-2.84a5.77,5.77,0,0,0-3.39-.15,22.72,22.72,0,0,0-8.48,4.67C11.9,14.1,8.39,20.33,5.08,26.71c-.35.63-.36,1.08.54,1.07,1.44-2.16,3.42-3.7,6-3.74C14.06,24,14.27,23,14,21c-.44-3.4,2.1-7.33,5.29-8.65,1.59-.66,3-.49,3.91,1a3.3,3.3,0,0,0,3.37,1.58c4.77-.31,8.9.55,12.08,4.81A13,13,0,0,1,41.56,29a3.6,3.6,0,0,1-3.21,3.38,1.26,1.26,0,0,1-1.55-.69.91.91,0,0,1,.7-1.22c2-.64,2-2.29,1.78-3.88a11,11,0,0,0-10.53-9.42c-.88,0-1.76-.05-2.64,0a4.41,4.41,0,0,1-4.39-1.87c-.85-1.32-1.69-1-2.61-.24a7,7,0,0,0-2.7,7.46c.59,2.77-.17,3.52-2.91,3.56a6.87,6.87,0,0,0-6.85,5.73c-.25,1.2-.48,2.41-.79,3.6s-1.33,2.23-2.48,2C-.16,36.55.33,39.09,0,41c-.35,2.32,1.74,2.67,3.06,3.32s2.74-.07,3.39-1.61c.77-1.87,1.35-3.81,2.78-5.35a4.24,4.24,0,0,1,4-1.46,1.24,1.24,0,0,1,1.08,1A.85.85,0,0,1,13.52,38c-2.61,0-3.28,2-4.12,3.84-2.27,5.06-3.59,5.69-9,4.21.41,2.08.32,4.33,3.43,4.15A1.15,1.15,0,0,1,5,51.4c0,.76-.62,1-1.3,1-1.5,0-1.29.77-.89,1.69a35.37,35.37,0,0,0,1.63,3.6c1,1.77,2.67,3.27,4.72,2.67a8.58,8.58,0,0,1,6.12.47,6.47,6.47,0,0,0,3.65.1c1.8-.32,2.43-.88,1.19-2.7-2-2.92-.73-5.83.76-8.44,1.37-2.4,3.73-1.24,5.76-1,.26,0,.52.11.79.12.92,0,2.14.58,2.63-.51a3.2,3.2,0,0,0-.39-3.7c-1.14-1.22-2.29-2.43-3.7-3.92-1.87,4.84-5.31,5.28-9.41,4a5.92,5.92,0,0,0-1-.15c-1.93-.22-2.63.7-2.23,2.5.22,1,.65,2,.91,3,.2.74.1,1.47-.77,1.71s-1.15-.33-1.39-.93c-.94-2.29-2.12-4.73-.57-7s4-1.59,6.3-1.13l.25.07c3.79.89,6.65-1.48,5.92-5.28a45.48,45.48,0,0,1-.41-8.14c0-1.81-.11-3.56-2.19-4.36-.62-.23-1.07-.71-.6-1.44a1.31,1.31,0,0,1,1.65-.44,4.75,4.75,0,0,1,3.35,4.61c.1,2.1.05,4.22,0,6.34A6.41,6.41,0,0,0,27,38.36,42.37,42.37,0,0,0,33.39,45a4.78,4.78,0,0,0,4.69.93,17.65,17.65,0,0,1,6.56-.59c4.89.4,8.48,4.73,7.47,9-.2.86-.46,1.93-1.57,1.79s-.94-1.17-.8-2.08A5.21,5.21,0,0,0,46,47.9a11.4,11.4,0,0,0-5.23-.25c-1.91.27-3.77,1-5.75.66-1-.2-2-1.19-2.71.69-.6,1.66-.91,2.94.82,4a9.56,9.56,0,0,0,3.39,1.42c.84.15,2,.11,1.76,1.37-.24,1.08-1.38,1-2.24.81-2.61-.46-4.95-1.54-6.3-3.92-1.47-2.58-4.09-2-6.08-1.91-1.8,0-1.9,2.49-2.07,4.09-.21,2,1.5,4.26,3.1,4.12C28,58.73,31,59.79,34,60.76s6.24,1.89,9.59,1.1a3.57,3.57,0,0,1,2.83.37C50,64.66,54.14,64.87,58.31,65a11.41,11.41,0,0,0,8.18-3.14c1.93-1.77,1.58-4.12.59-6.36a1.47,1.47,0,0,1,0-.78c.37-2.6-.19-4.55-3.21-5-.62-.09-1.21-.53-.93-1.31s.89-.73,1.55-.72c2.51.06,5.3,2.39,5,4.82s.93,4.48.84,7A3.22,3.22,0,0,0,72.17,57,9.91,9.91,0,0,1,73,54,5.05,5.05,0,0,0,71,47ZM63,59.84c-.29.68-.94.71-1.68.49-1.05-.8-3.24.29-3.54-.84a32.2,32.2,0,0,0-2.24-5A.9.9,0,0,1,56,53.41a1,1,0,0,1,1.24,0,6.57,6.57,0,0,1,1.22,1.36c.92,1.45,1.62,3.06,3.65,3.41A1.18,1.18,0,0,1,63,59.84Z"/><path class="cls-3" d="M91.38,30a10.67,10.67,0,0,1-1-4.22c-.26-2.64-1-5.48-2.93-7.13-1.82-1.51-4.36-2.19-6-4.16a1.27,1.27,0,0,0-1.7-.22c-.71.47-.23,1.06-.08,1.64,1.07,3.92-.9,6.54-5,6.71a10.78,10.78,0,0,1-7.91-3.11c-.66-.61-1.93-1.17-1-2.29s1.7-.05,2.4.55C70,19.37,72,20.66,74.54,20.42c1.61-.14,3.07-.67,3.09-2.57A2.68,2.68,0,0,0,74.82,15a3.37,3.37,0,0,1-3.14-2.38c-1.4-3.22-3.48-5.51-7.44-5.06a2.34,2.34,0,0,1-1.5-.44c-2-1.45-4.05-1.23-6.3-.64-4.11,1.09-6-.47-5.64-4.62C51,.2,50.4-.13,49.15.14a33.49,33.49,0,0,1-9.48.28c-.54,0-1.24-.33-1.64.39.73,1.91,1.73,2.73,4,1.93,1.71-.6,3.1.4,4,2.17,2.26,4.39,5,8.14,10.92,6.89.62-.13,1.32-.07,1.5.69s-.43,1.11-1,1.33a7.33,7.33,0,0,1-7.74-1c-2.34-2-4.86-3.86-6.22-6.72-.5-1-1-1.31-2-.91C39.36,6,38,5.26,36.79,3.43,35,.76,33.16.56,30.25,2.41c1.4.91,3.26,1.41,3.4,3.38S31.74,8.4,31.31,10a1.9,1.9,0,0,0,1.92.08c5.12-2.57,8.48,1.2,12.12,3.52a3.83,3.83,0,0,1,1.38,4.53c-.65,1.86.12,2.32,1.77,2.46,2.5.23,4.94.69,6.42,3.07,2.27,3.65,3.55,7.47,2.15,11.79a7,7,0,0,0-.34,2.6c.06.88.54,1.86-.88,1.95-1.15.07-1.43-.88-1.56-1.77-.23-1.63.49-3.11.85-4.65,1.19-5.2-2.34-10.48-7.12-10.62.14.4.3,1.16.41,1.15,2.79-.21,2.54,2.39,3.63,3.77,1.21,1.54,2.06,3,1.44,5.07-.34,1.14-2.43,2.89-2.43,2.47,0-1.89-2.09-3.39-1-5.34.36-.69.89-1.37.13-1.78-1.2-.64-2.55-1.29-4-.79-.91.31-.91,1.21-.71,2,.15.57.71,1.4,0,1.67-2.37.95-2.42,3.53-3.86,5.11,3.1-.63,4.65-2.26,4.89-5.27.07-.88-.15-2.06,1.05-2s1.47,1.32,1.42,2.41a8.8,8.8,0,0,1-1.13,3.21c-.24.5-1,1.25-.11,1.53,3.12,1,5,3.87,8,5.08,2.8,1.13,5.44.16,8-.35,1.51-.29,1.77-2.22,2-3.72.08-.58.42-1,1-1s1,.53,1.21,1.2c.33,1.29-.65,2.31-.75,3.69a6.15,6.15,0,0,0,5.83-3.36c.49-.84,1-2.08,2.08-1.4s.4,1.86-.14,2.79c-1.26,2.17-3.4,3.21-5.86,4.31,2.21,1.26,4.35,2.15,5.78,4a1.45,1.45,0,0,0,1.21.32c4.53-1.07,9.19-2,12.56-5.56,1.92-2,1.89-4,.24-6.33a8.62,8.62,0,0,1-1.38-3.66c-.34-2-.93-4-3.51-4.33-.64-.08-1.27-.36-1.14-1.16s.9-1,1.64-.93a5.51,5.51,0,0,1,4.61,3.07c1.23,1.57.76,3.64,1.61,5.32l0,0C92.57,33.05,91.51,31.48,91.38,30Zm-8,5.93a3.58,3.58,0,0,1,2.38,2.79c0,.76,0,1.36-.72,1.66a1,1,0,0,1-1.44-.75c-.4-1.32-1.48-1.65-2.57-2a5,5,0,0,1-2.53-1.84c-2.15-2.92-5.19-4.08-8.66-4.43-.88-.09-1.75-.22-2.63-.34-4.47-.6-5.46-1.59-5.55-6.07a3.71,3.71,0,0,0-2.56-3.84,7.92,7.92,0,0,1-4-2.87c-.46-.71-.65-1.55.19-2.09s1.31-.07,1.7.67c.67,1.28,2,1.76,3.18,2.24,2.73,1.08,4.1,3,3.85,5.91-.23,2.65,1.11,3.66,3.51,3.83,5.15.35,10,1.4,13.3,5.91C81.39,35.57,82.48,35.6,83.37,36Z"/><path class="cls-1" d="M126.91,54.58c-.19-4.27-2.75-6.61-7-8.4,3.38-1.18,5.37-2.87,5.84-5.84,1.14-7.24-2.16-11.59-9.48-12.58-6.47-.88-13-.24-19.45-.47-1.51-.05-1.78.64-1.77,1.95q0,18,0,35.92c0,1.3.23,2,1.75,2,6.58-.2,13.16.33,19.73-.42C123.91,65.87,127.25,61.93,126.91,54.58ZM106.36,39.67c0-3.89,0-3.9,3.86-3.57.53,0,1.07.14,1.6.21,1.86.24,3,1.22,3,3.16s-1.13,3.14-3.1,3.41c-.8.11-1.61.12-2.92.21C105.93,44,106.34,41.71,106.36,39.67Zm6.24,18.46a13,13,0,0,1-2.16.15c-4.9,0-4,.48-4.07-4.12.6-.93-1.15-2.84,1.12-3.41,2.57-.63,7,.5,7.78,1.9A3.59,3.59,0,0,1,112.6,58.13Z"/><path class="cls-1" d="M354.63,55.44c3.15-.2,6.3-.45,9.46-.58,9-.35,9.69-1.19,7.9-10.27-1-5.17-3.62-7.83-8.69-8.63a32.92,32.92,0,0,0-5.94-.42c-8.72.23-13.17,3.43-14.54,10.47a46.44,46.44,0,0,0-.49,5c.12,1.91.16,3.17.27,4.43.62,7,4.07,10.77,11.07,11.9A30.31,30.31,0,0,0,365,67c7.48-1.61,5.59-.9,5.89-7.4.07-1.48-.31-1.88-1.84-1.46a42.57,42.57,0,0,1-6.62,1.3c-3.07.35-6.16.37-8.58-2.1-.37-.38-.81-.83-.61-1.41S354.11,55.48,354.63,55.44Zm-1.53-7.73a2.92,2.92,0,0,1,.9-2.94c1.57-1.71,6.31-1.91,8-.38a2.65,2.65,0,0,1,.89,2.67c-.26,1-1.32.67-2.07.73-1.79.16-3.57.26-5.49.39C354.67,48,353.51,48.87,353.1,47.71Z"/><path class="cls-1" d="M312,44.11c-.32-3.83-2.58-6.19-6.2-7.37a29.15,29.15,0,0,0-9.38-1.06c-7.19.06-7.13,0-7.09,7.23,0,1.78.38,2.29,2.28,2a20.28,20.28,0,0,1,7.8.1,2.4,2.4,0,0,1,2.05,2.51c-.11,1.56-1.52.83-2.34.86-3.77.17-7.59-.31-11.26,1-4.24,1.53-5.94,4.22-5.77,9.24.15,4.64,2.21,7.53,6.42,8.56,4.67,1.15,9.12.6,13.17-2.7.61,1.29.57,2.68,2.28,2.62,2.26-.09,4.52,0,6.77,0,.94,0,1.56-.23,1.54-1.36C312.08,58.53,312.57,51.31,312,44.11ZM298.37,59.4a8.39,8.39,0,0,1-4.25.19,2,2,0,0,1-1.82-2,1.94,1.94,0,0,1,1.69-2.1,40.24,40.24,0,0,1,4-.45c1.11.69,3.11-1,3.54,1.19C302,58.59,300,58.88,298.37,59.4Z"/><path class="cls-1" d="M186,55.29V46.37c0-.27,0-.54,0-.81-.22-5-2.46-7.81-7.29-9.1a33.41,33.41,0,0,0-9.4-.77c-6.07.13-6.07.15-6.07,6.29a12.13,12.13,0,0,1,0,1.35c-.17,1.46.38,1.82,1.86,1.62a21,21,0,0,1,8.32.13,2.22,2.22,0,0,1,1.86,2.59c-.23,1.32-1.47.7-2.25.72-3.95.12-7.95-.34-11.77,1.15s-5.41,4.14-5.31,8.75,2,7.65,5.81,8.74c4.41,1.25,8.75,1.08,12.63-1.79.62-.46,1.37-1,1.57.22.31,1.78,1.52,1.67,2.81,1.65,1.71,0,3.43-.1,5.14,0s2.24-.39,2.17-2.1C185.87,61.78,186,58.53,186,55.29Zm-11.8,3.37a10.57,10.57,0,0,1-5,1.08c-1.13-.1-2.79,0-2.95-2-.17-2.16,1.5-2.39,3.08-2.49a39.1,39.1,0,0,1,4-.08c.71,0,1.75-.44,2,.77A2.2,2.2,0,0,1,174.16,58.66Z"/></g></g></svg>