<svg xmlns="http://www.w3.org/2000/svg" viewBox="0 0 372.79 85.53"><defs><style>.cls-1{fill:#9e4833;}.cls-2{fill:#03010c;}.cls-3{fill:#04020d;}.cls-4{fill:#9f4a35;}.cls-5{fill:#05030e;}.cls-6{fill:#b67464;}.cls-7{fill:#c18b7d;}.cls-8{fill:#b16b5a;}.cls-9{fill:#f6f0ee;}.cls-10{fill:#fcfaf9;}.cls-11{fill:#fafafa;}.cls-12{fill:#f9f8f9;}.cls-13{fill:#f8f7f7;}.cls-14{fill:#f9f9f9;}</style></defs><g id="图层_2" data-name="图层 2"><g id="图层_1-2" data-name="图层 1"><path class="cls-1" d="M5.08,26.71C8.39,20.33,11.9,14.1,17.28,9.15a22.72,22.72,0,0,1,8.48-4.67,5.77,5.77,0,0,1,3.39.15c1.67.46,2.57,1.21.94,2.84-1,1-1.86,2.3-.87,3.75a3.13,3.13,0,0,0,4,1.09c4.39-2.26,7.08.84,10.15,2.87a2.41,2.41,0,0,1,1,2.52C44,21.76,44,21.76,48,22.94c3.72.77,4.23,4.52,6.25,6.85C55.34,31,53.68,35,52.11,35.7c-1,.5-1.73.17-2-.91-.32-1.45-1-2.86-.77-4.37.31-1.72-.66-2.26-2-2.3s-1.12,1.09-1.32,2c-.58,2.62-2.56,4.34-4.38,6.14a1.58,1.58,0,0,1-.42.31c-6.15,2.25-7.35,1.57-8.35-4.95-.28-1.82-.3-3.68-.47-5.52C32.3,25,32,23.87,30.74,23.37a1.14,1.14,0,0,0-1.24.06c-.37.3-.65.79-.34,1.15,1.67,2,.67,4.43,1.21,6.6a9.12,9.12,0,0,1,.13,1c1,7.3,3.92,9.09,10.85,6.71,3.39-1.17,6.42-1,9.27,1.69,3,2.82,6.67,4.25,10.94,3a5.71,5.71,0,0,1,4.57.7c1.62.9,3.26,1.76,4.86,2.68a5.05,5.05,0,0,1,2,7,9.91,9.91,0,0,0-.82,3,3.22,3.22,0,0,1-1.84,2.42c.09-2.47-1.12-4.51-.84-7s-2.52-4.76-5-4.82c-.66,0-1.3,0-1.55.72s.31,1.22.93,1.31c3,.46,3.58,2.41,3.21,5a1.47,1.47,0,0,0,0,.78c1,2.24,1.34,4.59-.59,6.36A11.41,11.41,0,0,1,58.31,65c-4.17-.11-8.28-.32-11.91-2.75a3.57,3.57,0,0,0-2.83-.37c-3.35.79-6.46-.09-9.59-1.1s-6-2-9.29-1.74c-1.6.14-3.31-2.11-3.1-4.12.17-1.6.27-4,2.07-4.09,2-.05,4.61-.67,6.08,1.91,1.35,2.38,3.69,3.46,6.3,3.92.86.16,2,.27,2.24-.81.28-1.26-.92-1.22-1.76-1.37A9.56,9.56,0,0,1,33.13,53c-1.73-1.1-1.42-2.38-.82-4C33,47.12,34,48.11,35,48.31c2,.38,3.84-.39,5.75-.66A11.4,11.4,0,0,1,46,47.9,5.21,5.21,0,0,1,49.74,54c-.14.91-.44,1.93.8,2.08s1.37-.93,1.57-1.79c1-4.25-2.58-8.58-7.47-9a17.65,17.65,0,0,0-6.56.59A4.78,4.78,0,0,1,33.39,45,42.37,42.37,0,0,1,27,38.36a6.41,6.41,0,0,1-1.23-4.23c.05-2.12.1-4.24,0-6.34a4.75,4.75,0,0,0-3.35-4.61,1.31,1.31,0,0,0-1.65.44c-.47.73,0,1.21.6,1.44,2.08.8,2.16,2.55,2.19,4.36a45.48,45.48,0,0,0,.41,8.14c.73,3.8-2.13,6.17-5.92,5.28l-.25-.07c-2.26-.46-4.74-1.19-6.3,1.13s-.37,4.75.57,7c.24.6.66,1.13,1.39.93s1-1,.77-1.71c-.26-1-.69-2-.91-3-.4-1.8.3-2.72,2.23-2.5a5.92,5.92,0,0,1,1,.15c4.1,1.28,7.54.84,9.41-4,1.41,1.49,2.56,2.7,3.7,3.92a3.2,3.2,0,0,1,.39,3.7c-.49,1.09-1.71.53-2.63.51-.27,0-.53-.09-.79-.12-2-.24-4.39-1.4-5.76,1-1.49,2.61-2.75,5.52-.76,8.44,1.24,1.82.61,2.38-1.19,2.7a6.47,6.47,0,0,1-3.65-.1,8.58,8.58,0,0,0-6.12-.47c-2.05.6-3.68-.9-4.72-2.67A35.37,35.37,0,0,1,2.8,54.1c-.4-.92-.61-1.74.89-1.69.68,0,1.26-.25,1.3-1a1.15,1.15,0,0,0-1.2-1.19c-3.11.18-3-2.07-3.43-4.15,5.45,1.48,6.77.85,9-4.21C10.24,40,10.91,38,13.52,38a.85.85,0,0,0,.86-1.08,1.24,1.24,0,0,0-1.08-1,4.24,4.24,0,0,0-4,1.46c-1.43,1.54-2,3.48-2.78,5.35-.65,1.54-2,2.31-3.39,1.61S-.31,43.34,0,41c.29-1.93-.2-4.47,3.34-3.64,1.15.27,2.15-.7,2.48-2s.54-2.4.79-3.6a6.87,6.87,0,0,1,6.85-5.73c2.74,0,3.5-.79,2.91-3.56a7,7,0,0,1,2.7-7.46c.92-.73,1.76-1.08,2.61.24a4.41,4.41,0,0,0,4.39,1.87c.88-.06,1.76,0,2.64,0a11,11,0,0,1,10.53,9.42c.21,1.59.27,3.24-1.78,3.88a.91.91,0,0,0-.7,1.22,1.26,1.26,0,0,0,1.55.69A3.61,3.61,0,0,0,41.56,29a13,13,0,0,0-2.91-9.25c-3.18-4.26-7.31-5.12-12.08-4.81a3.3,3.3,0,0,1-3.37-1.58c-.95-1.53-2.32-1.7-3.91-1C16.1,13.64,13.56,17.57,14,21c.27,2,.06,3-2.36,3.07-2.6,0-4.58,1.58-6,3.74C4.72,27.79,4.73,27.34,5.08,26.71Z"/><path class="cls-1" d="M41.65,36.3c1.44-1.58,1.49-4.16,3.86-5.11.67-.27.11-1.1,0-1.67-.2-.82-.2-1.72.71-2,1.42-.5,2.77.15,4,.79.76.41.23,1.09-.13,1.78-1,1.95,1,3.45,1,5.34,0,.42,2.09-1.33,2.43-2.47.62-2.07-.23-3.53-1.44-5.07-1.09-1.38-.84-4-3.63-3.77-.11,0-.27-.75-.41-1.15,4.78.14,8.31,5.42,7.12,10.62-.36,1.54-1.08,3-.85,4.65.13.89.41,1.84,1.56,1.77,1.42-.09.94-1.07.88-1.95a7,7,0,0,1,.34-2.6c1.4-4.32.12-8.14-2.15-11.79C53.44,21.26,51,20.8,48.5,20.57c-1.65-.14-2.42-.6-1.77-2.46a3.83,3.83,0,0,0-1.38-4.53c-3.64-2.32-7-6.09-12.12-3.52A1.9,1.9,0,0,1,31.31,10c.43-1.58,2.46-2.37,2.34-4.19s-2-2.47-3.4-3.38C33.16.56,35,.76,36.79,3.43,38,5.26,39.36,6,41.43,5.17c1-.4,1.53-.14,2,.91,1.36,2.86,3.88,4.76,6.22,6.72a7.33,7.33,0,0,0,7.74,1c.59-.22,1.2-.57,1-1.33s-.88-.82-1.5-.69C51.05,13.05,48.28,9.3,46,4.91c-.91-1.77-2.3-2.77-4-2.17-2.25.8-3.25,0-4-1.93.4-.72,1.1-.42,1.64-.39A33.49,33.49,0,0,0,49.15.14C50.4-.13,51,.2,50.8,1.83,50.39,6,52.33,7.54,56.44,6.45c2.25-.59,4.3-.81,6.3.64a2.34,2.34,0,0,0,1.5.44c4-.45,6,1.84,7.44,5.06A3.37,3.37,0,0,0,74.82,15a2.68,2.68,0,0,1,2.81,2.88c0,1.9-1.48,2.43-3.09,2.57C72,20.66,70,19.37,68.11,17.8c-.7-.6-1.47-1.69-2.4-.55s.35,1.68,1,2.29a10.78,10.78,0,0,0,7.91,3.11c4.1-.17,6.07-2.79,5-6.71-.15-.58-.63-1.17.08-1.64a1.27,1.27,0,0,1,1.7.22c1.64,2,4.18,2.65,6,4.16,2,1.65,2.67,4.49,2.93,7.13a10.67,10.67,0,0,0,1,4.22c.13,1.45,1.19,3-.55,4.21l0,0c-.85-1.68-.38-3.75-1.61-5.32a5.51,5.51,0,0,0-4.61-3.07c-.74,0-1.49,0-1.64.93s.5,1.08,1.14,1.16c2.58.32,3.16,2.3,3.51,4.33A8.62,8.62,0,0,0,89,35.89c1.65,2.34,1.68,4.28-.24,6.33-3.37,3.61-8,4.49-12.56,5.56A1.45,1.45,0,0,1,75,47.46c-1.43-1.88-3.57-2.77-5.78-4,2.46-1.1,4.6-2.14,5.86-4.31.54-.93,1.27-2.09.14-2.79s-1.59.56-2.08,1.4a6.15,6.15,0,0,1-5.83,3.36c.1-1.38,1.08-2.4.75-3.69-.17-.67-.51-1.15-1.21-1.2s-.95.4-1,1c-.23,1.5-.49,3.43-2,3.72-2.6.51-5.24,1.48-8,.35-3-1.21-4.86-4.08-8-5.08-.88-.28-.13-1,.11-1.53A8.8,8.8,0,0,0,49,31.43c.05-1.09-.08-2.36-1.42-2.41s-1,1.13-1.05,2C46.3,34,44.75,35.67,41.65,36.3Z"/><path class="cls-2" d="M120,46.18c4.21,1.8,6.77,4.13,7,8.4.34,7.35-3,11.29-10.36,12.12-6.57.75-13.15.22-19.73.42-1.52,0-1.75-.66-1.75-2q.06-18,0-35.92c0-1.31.26-2,1.77-1.95,6.48.23,13-.41,19.45.47,7.32,1,10.62,5.34,9.48,12.58C125.32,43.31,123.33,45,120,46.18Z"/><path class="cls-2" d="M221.42,39.1c4.42-3.68,8.92-4,13.59-3.24a7.14,7.14,0,0,1,6.25,6.21c.91,4.65.4,9.34.5,14,.07,3.06,0,6.12.05,9.18,0,1.44-.47,1.89-1.87,1.85-2.43-.09-4.87-.12-7.3,0-1.73.09-2.11-.6-2.08-2.2.08-5.49.06-11,0-16.48,0-3.54-1.12-4.53-4.53-4.47s-4.56,1.31-4.56,4.57c0,5.4-.06,10.81,0,16.21,0,1.65-.24,2.55-2.18,2.36-2.68-.25-6.12,1.09-7.86-.49s-.54-5.09-.58-7.74c-.09-6.85,0-13.69-.06-20.54,0-1.64.4-2.27,2.1-2.16a45.44,45.44,0,0,0,6,0C220.66,36.07,221.9,36.36,221.42,39.1Z"/><path class="cls-2" d="M277.74,61.45c0,5.12,0,5.19-5.12,6a33,33,0,0,1-13.69-.85c-5.38-1.5-8.61-5.27-9.81-10.55-1.38-6.13-1.62-12.34.35-18.44,1.86-5.79,6-9.09,11.82-10.28a36.3,36.3,0,0,1,14,.21c1.44.26,2.24.81,2.11,2.48a46.8,46.8,0,0,0,0,5.68c.07,1.45-.29,1.89-1.84,1.47a26.16,26.16,0,0,0-8.32-.82c-3.41.19-5.38,1.69-6.25,5a23,23,0,0,0,0,11.51c.8,3.33,2.9,5,6.38,5.19a21.93,21.93,0,0,0,7.79-.69c2.17-.67,3-.28,2.63,2A15.7,15.7,0,0,0,277.74,61.45Z"/><path class="cls-2" d="M342.33,51a46.44,46.44,0,0,1,.49-5c1.37-7,5.82-10.24,14.54-10.47a32.92,32.92,0,0,1,5.94.42c5.07.8,7.67,3.46,8.69,8.63,1.79,9.08,1.12,9.92-7.9,10.27-3.16.13-6.31.38-9.46.58-.52,0-1.18-.12-1.41.52s.24,1,.61,1.41c2.42,2.47,5.51,2.45,8.58,2.1a42.57,42.57,0,0,0,6.62-1.3c1.53-.42,1.91,0,1.84,1.46-.3,6.5,1.59,5.79-5.89,7.4a30.31,30.31,0,0,1-11.31.32c-7-1.13-10.45-4.88-11.07-11.9C342.49,54.19,342.45,52.93,342.33,51Z"/><path class="cls-2" d="M301.64,64.5c-4.05,3.3-8.5,3.85-13.17,2.7-4.21-1-6.27-3.92-6.42-8.56-.17-5,1.53-7.71,5.77-9.24,3.67-1.33,7.49-.85,11.26-1,.82,0,2.23.7,2.34-.86A2.4,2.4,0,0,0,299.37,45a20.28,20.28,0,0,0-7.8-.1c-1.9.29-2.27-.22-2.28-2,0-7.18-.1-7.17,7.09-7.23a29.15,29.15,0,0,1,9.38,1.06c3.62,1.18,5.88,3.54,6.2,7.37.61,7.2.12,14.42.27,21.63,0,1.13-.6,1.36-1.54,1.36-2.25,0-4.51-.07-6.77,0C302.21,67.18,302.25,65.79,301.64,64.5Z"/><path class="cls-2" d="M186,55.29c0,3.24-.09,6.49,0,9.73.07,1.71-.55,2.21-2.17,2.1s-3.43,0-5.14,0c-1.29,0-2.5.13-2.81-1.65-.2-1.18-.95-.68-1.57-.22-3.88,2.87-8.22,3-12.63,1.79-3.85-1.09-5.72-4.11-5.81-8.74s1.52-7.27,5.31-8.75,7.82-1,11.77-1.15c.78,0,2,.6,2.25-.72a2.22,2.22,0,0,0-1.86-2.59A21,21,0,0,0,165,45c-1.48.2-2-.16-1.86-1.62a12.13,12.13,0,0,0,0-1.35c0-6.14,0-6.16,6.07-6.29a33.41,33.41,0,0,1,9.4.77c4.83,1.29,7.07,4.09,7.29,9.1,0,.27,0,.54,0,.81Z"/><path class="cls-3" d="M144.71,40.62c1.3-2.71,3.11-4.51,6.12-4.93,1.59-.22,2.44,0,2.18,1.82a29.32,29.32,0,0,0-.06,3c0,1.43.33,3.1-.28,4.23s-2.45.55-3.73.89a5.92,5.92,0,0,0-4.78,6c0,4.41-.11,8.82,0,13.23.06,1.84-.57,2.35-2.3,2.25-2.16-.12-4.33-.08-6.49,0-1.35,0-1.94-.33-1.93-1.81q.08-13.64,0-27.28c0-1.45.5-1.89,1.88-1.83a45.43,45.43,0,0,0,6,0c2.15-.18,3.24.4,2.85,2.75A1.57,1.57,0,0,0,144.71,40.62Z"/><path class="cls-2" d="M330.36,40.4c2-2.48,3.87-4.51,7.14-4.77,1.35-.1,2.11,0,1.9,1.61-.11.8,0,1.62-.07,2.43-.07,1.62.29,3.43-.33,4.81s-2.75.72-4.15,1.19c-2.92,1-4.41,3-4.46,6.63-.06,4-.12,7.94,0,11.9.09,2.15-.4,3.21-2.77,2.92-2.57-.31-5.91,1.1-7.53-.62-1.46-1.57-.39-4.82-.4-7.33-.05-7,0-13.89-.05-20.83,0-1.66.44-2.26,2.12-2.15a37.06,37.06,0,0,0,6,0c2.17-.2,3,.58,2.61,2.71A9.5,9.5,0,0,0,330.36,40.4Z"/><path class="cls-3" d="M203.92,51.58c0,4.5-.06,9,0,13.5,0,1.48-.36,2.15-1.95,2-2.77-.2-6.28,1.1-8.12-.51s-.53-5.08-.56-7.74c-.09-6.84,0-13.68-.06-20.52,0-1.63.44-2.25,2.13-2.16,2.24.12,4.5.09,6.75,0,1.45-.06,1.84.51,1.81,1.89C203.87,42.58,203.92,47.08,203.92,51.58Z"/><path class="cls-1" d="M29.91,72.78c-3.32-1.46-7.84-1.11-12.08-2.23-3.39-.89-5.21-3.37-5.87-6.78-.28-1.46.23-1.86,1.51-1.23,3,1.45,5.86.83,8.69-.33a11.25,11.25,0,0,1,7.75-.43c3.2,1,6.37,2.08,9.77,2.16,1.66,0,1.19,1.13,1,2.06C39.88,69,34.22,72.91,29.91,72.78Z"/><path class="cls-4" d="M33,85.49c-2,.1-2.36-.58-2-2.69a15.87,15.87,0,0,1,8.2-11.57,7.49,7.49,0,0,0,4-5.88c.15-1.52,1-1.77,2.17-1.37a22.5,22.5,0,0,1,2.85,1.36c1,.53,1.11,1.25.36,2.1a7.39,7.39,0,0,1-1.08,1.15c-5.2,3.79-8.5,9-11.36,14.64C35.51,84.51,34.81,85.76,33,85.49Z"/><path class="cls-4" d="M83,12.64a5.27,5.27,0,0,0-5.24,0,2.73,2.73,0,0,1-4.12-1.38C71.9,7.47,69.22,5.09,64.8,5.31A2.11,2.11,0,0,1,63.55,5c-2.4-1.81-5-1.41-7.59-.68-1.38.39-2.73.62-2.87-1.43C53,1.14,53.43.08,55.55,0a28.62,28.62,0,0,1,10,1.81,55.42,55.42,0,0,1,17.27,9.74A.69.69,0,0,1,83,12.64Z"/><path class="cls-5" d="M198.49,21.9c2.08,0,4.41-.47,5.26,1.64a10.3,10.3,0,0,1-.05,7.64,2.28,2.28,0,0,1-1.93,1.34,21.71,21.71,0,0,1-2.42.18c-6,.12-8-2.34-6.43-8.19C193.75,21.35,196.42,22,198.49,21.9Z"/><path class="cls-6" d="M5.08,26.71l.54,1.07c-.57,1.9-1.44,3.71-1.6,5.73,0,.59,0,1.67-1,1.35a1.25,1.25,0,0,1-.72-1.74C3.21,31,3.59,28.6,5.08,26.71Z"/><path class="cls-7" d="M83,12.64l-.08-1.08c1.34.64,1.92,1.93,3.28,3.58A5.27,5.27,0,0,1,83,12.64Z"/><path class="cls-8" d="M89.2,28.88c1.73,1.42,1.21,3.51,1.61,5.32C89.48,32.67,89.84,30.63,89.2,28.88Z"/><path class="cls-8" d="M90.83,34.24c1.12-1.28.29-2.81.55-4.21.9,1.26.71,2.67.47,4C91.75,34.65,91.31,35,90.83,34.24Z"/><path class="cls-9" d="M61.34,60.33c-1.05-.8-3.24.29-3.54-.84a32.2,32.2,0,0,0-2.24-5A.9.9,0,0,1,56,53.41a1,1,0,0,1,1.24,0,6.57,6.57,0,0,1,1.22,1.36c.92,1.45,1.62,3.06,3.65,3.41A1.18,1.18,0,0,1,63,59.84C62.73,60.52,62.08,60.55,61.34,60.33Z"/><path class="cls-10" d="M85.75,38.75c0,.76,0,1.36-.72,1.66a1,1,0,0,1-1.44-.75c-.4-1.32-1.48-1.65-2.57-2a5,5,0,0,1-2.53-1.84c-2.15-2.92-5.19-4.08-8.66-4.43-.88-.09-1.75-.22-2.63-.34-4.47-.6-5.46-1.59-5.55-6.07a3.71,3.71,0,0,0-2.56-3.84,7.92,7.92,0,0,1-4-2.87c-.46-.71-.65-1.55.19-2.09s1.31-.07,1.7.67c.67,1.28,2,1.76,3.18,2.24,2.73,1.08,4.1,3,3.85,5.91-.23,2.65,1.11,3.66,3.51,3.83,5.15.35,10,1.4,13.3,5.91.61.84,1.7.87,2.59,1.23A3.58,3.58,0,0,1,85.75,38.75Z"/><path class="cls-11" d="M106.37,54.16c.6-.93-1.15-2.84,1.12-3.41,2.57-.63,7,.5,7.78,1.9a3.59,3.59,0,0,1-2.67,5.48,13,13,0,0,1-2.16.15C105.54,58.27,106.47,58.76,106.37,54.16Z"/><path class="cls-12" d="M108.82,43.09c-2.89.92-2.48-1.38-2.46-3.42,0-3.89,0-3.9,3.86-3.57.53,0,1.07.14,1.6.21,1.86.24,3,1.22,3,3.16s-1.13,3.14-3.1,3.41C110.94,43,110.13,43,108.82,43.09Z"/><path class="cls-13" d="M355.33,48.18c-.66-.19-1.82.69-2.23-.47a2.92,2.92,0,0,1,.9-2.94c1.57-1.71,6.31-1.91,8-.38a2.65,2.65,0,0,1,.89,2.67c-.26,1-1.32.67-2.07.73C359,48,357.25,48.05,355.33,48.18Z"/><path class="cls-14" d="M298,55c1.11.69,3.11-1,3.54,1.19.46,2.36-1.62,2.65-3.2,3.17a8.39,8.39,0,0,1-4.25.19,2,2,0,0,1-1.82-2,1.94,1.94,0,0,1,1.69-2.1A40.24,40.24,0,0,1,298,55Z"/><path class="cls-11" d="M169.17,59.74c-1.13-.1-2.79,0-2.95-2-.17-2.16,1.5-2.39,3.08-2.49a39.1,39.1,0,0,1,4-.08c.71,0,1.75-.44,2,.77a2.2,2.2,0,0,1-1.17,2.71A10.57,10.57,0,0,1,169.17,59.74Z"/></g></g></svg>