<svg xmlns="http://www.w3.org/2000/svg" viewBox="0 0 71.53 71.57"><defs><style>.cls-1{fill:#a35751;}.cls-2{fill:#a45751;}.cls-3{fill:#a45852;}.cls-4{fill:#a45853;}</style></defs><g id="图层_2" data-name="图层 2"><g id="图层_1-2" data-name="图层 1"><path class="cls-1" d="M0,.11c2.47-.46,3.11.54,3.1,3C3,23.93,3.08,44.72,3,65.51c0,2.34.46,3.08,3,3.07,21-.11,42.08-.07,63.13,0,.82,0,2.14-.74,2.4,1s-.62,2-2.16,2q-34.65-.06-69.32,0Z"/><path class="cls-1" d="M44.28,6.58C50,7.11,55.56,7.65,61.16,8.15c.83.07,1.26.28,1.38,1.2C63.3,15,64.11,20.63,65,26.61a16.31,16.31,0,0,1-4.36-3.87c-1.57-1.87-2.5-1.46-4,.17-5,5.52-10.25,10.83-15.29,16.33-1.29,1.41-2,1.36-3.31,0-2.13-2.23-4.53-4.21-6.7-6.41-1-1.06-1.65-1-2.64.08C24.81,37.15,20.8,41.22,17,45.45c-1.16,1.27-1.8,1.17-2.92,0-1.91-2-4-3.87-6-5.73-.88-.8-1-1.34-.11-2.28Q18.08,26.76,28.14,16c.86-.92,1.37-.86,2.23,0,2.37,2.35,4.88,4.55,7.23,6.9,1,1,1.55,1.26,2.62.07,2.8-3.13,5.72-6.17,8.65-9.18.8-.82.75-1.33,0-2.13C47.31,10.06,45.89,8.38,44.28,6.58Z"/><path class="cls-2" d="M61,46.51c0,4.59,0,9.18,0,13.77,0,1.3-.29,1.75-1.69,1.78-5.78.13-5.78.19-5.78-5.54V36.58c0-1.81,3.12-6.55,4.73-7.2,1-.4,2.7,1.55,2.71,3.13C61,37.17,61,41.84,61,46.51Z"/><path class="cls-2" d="M50.51,37.91c0,7.67,0,15,0,22.39,0,1.31-.32,1.73-1.7,1.76-5.78.13-5.78.18-5.78-5.54V52.73C43.05,44.73,43.76,43.28,50.51,37.91Z"/><path class="cls-2" d="M29.54,40.08c0,7.26,0,14,0,20.66,0,.85-.23,1.2-1.18,1.31-6.12.71-5.89.53-6.43-5.47-.55-6.19.95-11.1,6-14.82A17.67,17.67,0,0,0,29.54,40.08Z"/><path class="cls-3" d="M32.55,42.09c2.65,2.5,4.75,4.53,6.92,6.47A1.92,1.92,0,0,1,40,50.25c0,3.4-.05,6.8,0,10.2,0,1.26-.39,1.56-1.62,1.61-5.88.2-5.88.24-5.88-5.66Z"/><path class="cls-4" d="M19,51.73v8.5c0,.32.13.76,0,.93-1.78,1.92-4.08.4-6.1.84-1,.23-1.37-.36-1.36-1.36,0-2.91,0-5.83,0-9a4.75,4.75,0,0,1,2.62,2c1,1.06,1.63,1.15,2.56,0A4.43,4.43,0,0,1,19,51.73Z"/></g></g></svg>