<svg xmlns="http://www.w3.org/2000/svg" viewBox="0 0 59.31 71.49"><defs><style>.cls-1{fill:#a35751;}</style></defs><g id="图层_2" data-name="图层 2"><g id="图层_1-2" data-name="图层 1"><path class="cls-1" d="M22.63,53.78c0-5.16-.06-10.32,0-15.48,0-2.21-.69-3.33-3-3a15.33,15.33,0,0,1-1.66,0c-.9,0-2-.06-1.9-1.23s1.05-1.24,2-1.2a.89.89,0,0,0,.23,0c1.53-.25,3.71.8,4.29-1.45s.76-4.84-1.41-6.83c-.93-.85-3.06-1.9-1.62-3.3s2.32.87,3.29,1.71a5.41,5.41,0,0,0,3.56,1.66c3.21.09,3.65-.38,3.8-3.59.05-1.25-.93-3.45,1.15-3.52,2.26-.07,1.43,2.22,1.49,3.56.13,2.88.8,3.61,3.71,3.65,5.49.06,8.85-2.26,9.53-6.59a8.27,8.27,0,0,0-4.3-8.1c-1.77-.87-2.57.1-3.46,1.39-.63.91-.94,3-2.5,2-1.31-.81.19-2.11.68-3.09,1.21-2.41.81-3.56-1.74-4.5-.45-.17-.92-.26-1.37-.39-4.79-1.31-5.13-1.07-5.54,3.83-.08.92.1,2.17-1.32,2-1.13-.09-1.07-1.18-1.09-2.06,0-.63,0-1.27,0-1.9,0-2-1-2.79-2.86-2.38A32.42,32.42,0,0,0,18,6.34c-1.66.61-2.18,1.73-1.12,3.35a22.21,22.21,0,0,1,1.37,2.49,1.1,1.1,0,0,1-.36,1.49,1.18,1.18,0,0,1-1.67-.39c-.28-.38-.54-.78-.8-1.18-2-3.11-2.54-3.18-5.11-.59a20.09,20.09,0,0,0-1.91,2.12C7,15.57,7.15,16.51,9.11,18c.32.24.66.44,1,.69.61.51,1.43,1.1.83,1.94s-1.42.25-2.14-.09c-3.28-1.59-3.9-1.34-4.69,2.14a28.66,28.66,0,0,0-.61,4.7c-.1,2,.84,3,2.91,2.72.24,0,.48-.06.71-.07,1.16,0,2.88-1.21,3.22.63.29,1.52-1.67,1.3-2.68,1.7-2.07.82-2.61,2.46-1.16,4.23a20.13,20.13,0,0,0,4.78,3.89c4.7,3,7.17,7,6.78,12.91-.36,5.29-.13,10.63,0,16,0,1.58-.3,2.22-2.06,2.18-4-.07-4,0-4-4,0-4.76-.12-9.53,0-14.29a8.28,8.28,0,0,0-3.11-7,26.45,26.45,0,1,1,44-21.46,11.19,11.19,0,0,0,1,3.87q2.48,5.53,4.85,11.11c1.21,2.86.6,3.77-2.46,3.85s-3.19.09-3.2,3.18c0,2.69,0,5.39,0,8.09,0,2.2-1.12,3.39-3.37,3.41s-4.45,0-6.67,0c-2.71,0-3.22.56-3.25,3.21s-.06,5.39,0,8.09c0,1.35-.2,2-1.78,1.95-4.6-.11-9.21-.09-13.81,0-1.37,0-1.75-.41-1.73-1.75.07-5.32,0-10.64,0-16Z"/></g></g></svg>