<svg xmlns="http://www.w3.org/2000/svg" viewBox="0 0 52.24 71.46"><defs><style>.cls-1{fill:#a35751;}.cls-2{fill:#a65b55;}</style></defs><g id="图层_2" data-name="图层 2"><g id="图层_1-2" data-name="图层 1"><path class="cls-1" d="M48.15,62.87c-1.71-.07-1.93-.8-1.89-2.2.07-2.3.07-4.61,0-6.9A19.51,19.51,0,0,0,37.47,38c-1.14-.8-2.37-1.46-3.53-2.17.07-.18.08-.28.13-.31.34-.2.69-.38,1-.57,7.23-3.94,11-10,11.17-18.27,0-1.9.07-3.81,0-5.71-.06-1.45.1-2.29,2-2.37a4.15,4.15,0,0,0,3.84-5.35C51.67,1.7,50.39,1,49.46,0H2.79C1.23,1.35-.43,2.69.1,5.09S2.42,8.72,5,8.69c1.06,0,1,.84,1,1.55,0,2.22,0,4.44,0,6.66.19,8.09,4,14,11,17.94.47.27,1.32.19,1.33,1.11A20.39,20.39,0,0,0,6.32,50.7C5.62,54,6,57.34,6,60.67c0,1.39-.18,2.13-1.9,2.2A4.15,4.15,0,0,0,0,67.23a4.34,4.34,0,0,0,4.35,4.19q21.77.08,43.54,0a4.34,4.34,0,0,0,4.34-4.2A4.15,4.15,0,0,0,48.15,62.87ZM5.42,6.11c-1.24,0-2.56-.05-2.63-1.68S4.08,2.7,5.3,2.7q20.84,0,41.65,0c1.22,0,2.59,0,2.51,1.73s-1.39,1.68-2.63,1.68H5.42ZM9.25,49.85A17.32,17.32,0,0,1,21.52,37.68c1.17-.35,2.52-.49,2.45-2,0-1.39-1.31-1.54-2.41-1.85A17.61,17.61,0,0,1,8.55,17c0-2,.12-4-.05-6s.65-2.22,2.32-2.19c5.16.1,10.32,0,15.47,0s10.16.08,15.24,0c1.84,0,2.35.55,2.21,2.3-.22,2.84.22,5.71-.33,8.54C42,27,37.68,31.66,30.59,33.8c-1.11.33-2.32.53-2.32,1.93s1.22,1.61,2.33,1.92a17.61,17.61,0,0,1,13.11,17c0,1.27.06,2.54,0,3.81s.62,3.36-.37,3.81c-1.46.66-3.4.3-5.14.28-.94,0-.94-.91-1.16-1.57-1.77-5.23-5.79-8.24-11-8.22a11,11,0,0,0-10.78,8.1c-.41,1.3-.93,1.76-2.28,1.77-4.47.05-4.47.11-4.47-4.28C8.54,55.49,8.39,52.63,9.25,49.85ZM46.79,68.74q-20.7,0-41.41,0c-1.2,0-2.62.09-2.59-1.65s1.49-1.75,2.79-1.75H46.75c1.33,0,2.75,0,2.7,1.83S48,68.74,46.79,68.74Z"/><path class="cls-1" d="M39.84,17.65A13.6,13.6,0,0,1,28.63,30.94a13.94,13.94,0,0,1-15.79-9.56c-1.21-4-.47-5.4,3.54-6.63A9.38,9.38,0,0,1,25.3,16.5C31,20.92,33.64,21.16,39.84,17.65Z"/><path class="cls-2" d="M28.41,42.57c-.19,1.28-.77,2.22-2.24,2.25a2,2,0,0,1-2.25-2,2,2,0,0,1,2-2.39C27.42,40.35,28.11,41.23,28.41,42.57Z"/></g></g></svg>